<svg width="40" height="40" viewBox="0 0 40 40" fill="none" xmlns="http://www.w3.org/2000/svg">
<g clip-path="url(#clip0_2584_18)">
<path d="M40 20C40 8.96 31.04 -3.91654e-07 20 -8.74228e-07C8.96 -1.3568e-06 -3.91654e-07 8.96 -8.74228e-07 20C-1.3568e-06 31.04 8.96 40 20 40C31.04 40 40 31.04 40 20ZM4 20C4 11.16 11.16 4 20 4C28.84 4 36 11.16 36 20C36 28.84 28.84 36 20 36C11.16 36 4 28.84 4 20Z" fill="#5D867F"/>
<path d="M17 10C17 11.6569 18.3431 13 20 13C21.6569 13 23 11.6569 23 10C23 8.34315 21.6569 7 20 7C18.3431 7 17 8.34315 17 10Z" fill="#5D867F"/>
<path d="M17 20C17 21.6569 18.3431 23 20 23C21.6569 23 23 21.6569 23 20C23 18.3431 21.6569 17 20 17C18.3431 17 17 18.3431 17 20Z" fill="#5D867F"/>
<path d="M17 30C17 31.6569 18.3431 33 20 33C21.6569 33 23 31.6569 23 30C23 28.3431 21.6569 27 20 27C18.3431 27 17 28.3431 17 30Z" fill="#5D867F"/>
</g>
<defs>
<clipPath id="clip0_2584_18">
<rect width="40" height="40" fill="white" transform="translate(40) rotate(90)"/>
</clipPath>
</defs>
</svg>
